<svg xmlns="http://www.w3.org/2000/svg" width="1280" height="720" viewBox="0 0 1280 720">
  <rect width="1280" height="720" fill="#f8fafc"/>
  <rect x="0" y="0" width="220" height="720" fill="#ffffff" stroke="#e2e8f0"/>
  <text x="24" y="48" fill="#6366f1" font-family="Segoe UI, sans-serif" font-size="18" font-weight="700">AI Student Tracker</text>
  <rect x="24" y="160" width="172" height="36" rx="8" fill="#6366f1"/>
  <text x="40" y="183" fill="#fff" font-family="Segoe UI, sans-serif" font-size="14">Analytics</text>
  <text x="280" y="70" fill="#0f172a" font-family="Segoe UI, sans-serif" font-size="28" font-weight="700">Analytics</text>
  <rect x="280" y="110" width="280" height="90" rx="14" fill="#fff" stroke="#e2e8f0"/>
  <text x="300" y="145" fill="#64748b" font-family="Segoe UI, sans-serif" font-size="12">CLASS AVERAGE</text>
  <text x="300" y="178" fill="#6366f1" font-family="Segoe UI, sans-serif" font-size="32" font-weight="700">72.4%</text>
  <rect x="580" y="110" width="280" height="90" rx="14" fill="#fff" stroke="#e2e8f0"/>
  <text x="600" y="145" fill="#64748b" font-family="Segoe UI, sans-serif" font-size="12">ATTENDANCE AVG</text>
  <text x="600" y="178" fill="#0ea5e9" font-family="Segoe UI, sans-serif" font-size="32" font-weight="700">88.1%</text>
  <rect x="880" y="110" width="280" height="90" rx="14" fill="#fff" stroke="#e2e8f0"/>
  <text x="900" y="145" fill="#64748b" font-family="Segoe UI, sans-serif" font-size="12">MODEL</text>
  <text x="900" y="178" fill="#10b981" font-family="Segoe UI, sans-serif" font-size="20" font-weight="700">RandomForest</text>
  <rect x="280" y="230" width="460" height="300" rx="16" fill="#fff" stroke="#e2e8f0"/>
  <text x="300" y="265" fill="#0f172a" font-family="Segoe UI, sans-serif" font-size="16" font-weight="700">Grade distribution</text>
  <rect x="320" y="420" width="50" height="80" fill="#6366f1" rx="4"/>
  <rect x="390" y="360" width="50" height="140" fill="#818cf8" rx="4"/>
  <rect x="460" y="300" width="50" height="200" fill="#6366f1" rx="4"/>
  <rect x="530" y="380" width="50" height="120" fill="#a5b4fc" rx="4"/>
  <rect x="780" y="230" width="420" height="300" rx="16" fill="#fff" stroke="#e2e8f0"/>
  <text x="800" y="265" fill="#0f172a" font-family="Segoe UI, sans-serif" font-size="16" font-weight="700">Risk factor breakdown</text>
  <rect x="820" y="320" width="320" height="18" rx="9" fill="#eef2ff"/>
  <rect x="820" y="320" width="240" height="18" rx="9" fill="#6366f1"/>
  <rect x="820" y="360" width="320" height="18" rx="9" fill="#eef2ff"/>
  <rect x="820" y="360" width="180" height="18" rx="9" fill="#6366f1"/>
  <rect x="820" y="400" width="320" height="18" rx="9" fill="#eef2ff"/>
  <rect x="820" y="400" width="120" height="18" rx="9" fill="#6366f1"/>
</svg>
