<svg xmlns="http://www.w3.org/2000/svg" width="1280" height="720" viewBox="0 0 1280 720">
  <rect width="1280" height="720" fill="#f8fafc"/>
  <rect x="0" y="0" width="220" height="720" fill="#ffffff" stroke="#e2e8f0"/>
  <text x="24" y="48" fill="#6366f1" font-family="Segoe UI, sans-serif" font-size="18" font-weight="700">AI Student Tracker</text>
  <rect x="24" y="120" width="172" height="36" rx="8" fill="#6366f1"/>
  <text x="40" y="143" fill="#fff" font-family="Segoe UI, sans-serif" font-size="14">Students</text>
  <text x="280" y="70" fill="#0f172a" font-family="Segoe UI, sans-serif" font-size="28" font-weight="700">Students</text>
  <text x="280" y="100" fill="#64748b" font-family="Segoe UI, sans-serif" font-size="14">128 profiles · filter, sort, risk badges</text>
  <rect x="280" y="130" width="360" height="40" rx="10" fill="#fff" stroke="#e2e8f0"/>
  <text x="300" y="155" fill="#94a3b8" font-family="Segoe UI, sans-serif" font-size="14">Search by name or roll&</text>
  <rect x="280" y="190" width="220" height="180" rx="16" fill="#fff" stroke="#e2e8f0"/>
  <circle cx="340" cy="250" r="28" fill="#6366f1"/>
  <text x="380" y="245" fill="#0f172a" font-family="Segoe UI, sans-serif" font-size="16" font-weight="700">Aarav Sharma</text>
  <text x="380" y="268" fill="#64748b" font-family="Segoe UI, sans-serif" font-size="13">10-A · Roll 1042</text>
  <rect x="300" y="290" width="60" height="22" rx="11" fill="#fef2f2"/>
  <text x="312" y="305" fill="#ef4444" font-family="Segoe UI, sans-serif" font-size="11" font-weight="700">HIGH</text>
  <rect x="520" y="190" width="220" height="180" rx="16" fill="#fff" stroke="#e2e8f0"/>
  <circle cx="580" cy="250" r="28" fill="#10b981"/>
  <text x="620" y="245" fill="#0f172a" font-family="Segoe UI, sans-serif" font-size="16" font-weight="700">Priya Nair</text>
  <text x="620" y="268" fill="#64748b" font-family="Segoe UI, sans-serif" font-size="13">10-B · Roll 1088</text>
  <rect x="540" y="290" width="50" height="22" rx="11" fill="#ecfdf5"/>
  <text x="552" y="305" fill="#10b981" font-family="Segoe UI, sans-serif" font-size="11" font-weight="700">LOW</text>
  <rect x="760" y="190" width="220" height="180" rx="16" fill="#fff" stroke="#e2e8f0"/>
  <circle cx="820" cy="250" r="28" fill="#f59e0b"/>
  <text x="860" y="245" fill="#0f172a" font-family="Segoe UI, sans-serif" font-size="16" font-weight="700">Rohan Patel</text>
  <text x="860" y="268" fill="#64748b" font-family="Segoe UI, sans-serif" font-size="13">9-A · Roll 0912</text>
  <rect x="780" y="290" width="55" height="22" rx="11" fill="#fffbeb"/>
  <text x="792" y="305" fill="#f59e0b" font-family="Segoe UI, sans-serif" font-size="11" font-weight="700">MED</text>
</svg>
